<mxfile host="app.diagrams.net" modified="2023-10-12T23:08:28.273Z" agent="Mozilla/5.0 (Windows NT 10.0; Win64; x64) AppleWebKit/537.36 (KHTML, like Gecko) Chrome/118.0.0.0 Safari/537.36" etag="12-0eigVLx-jfMCeuVHZ" version="22.0.4" type="github">
  <diagram name="PÃ¡gina-1" id="YkI35EVmc7Nr0hijqmT_">
    <mxGraphModel dx="1434" dy="750" grid="1" gridSize="10" guides="1" tooltips="1" connect="1" arrows="1" fold="1" page="1" pageScale="1" pageWidth="1169" pageHeight="827" background="none" math="0" shadow="0">
      <root>
        <mxCell id="0" />
        <mxCell id="1" parent="0" />
        <mxCell id="52OOBoe9xyoSRza9bdXO-7" value="Size" style="swimlane;fontStyle=1;align=center;verticalAlign=top;childLayout=stackLayout;horizontal=1;startSize=26;horizontalStack=0;resizeParent=1;resizeParentMax=0;resizeLast=0;collapsible=1;marginBottom=0;whiteSpace=wrap;html=1;" parent="1" vertex="1">
          <mxGeometry x="10" y="320" width="190" height="160" as="geometry">
            <mxRectangle x="480" y="10" width="60" height="30" as="alternateBounds" />
          </mxGeometry>
        </mxCell>
        <mxCell id="52OOBoe9xyoSRza9bdXO-8" value="+ id: Primary Key&lt;br&gt;- size: String&lt;br&gt;- active: Boolean" style="text;strokeColor=none;fillColor=none;align=left;verticalAlign=top;spacingLeft=4;spacingRight=4;overflow=hidden;rotatable=0;points=[[0,0.5],[1,0.5]];portConstraint=eastwest;whiteSpace=wrap;html=1;" parent="52OOBoe9xyoSRza9bdXO-7" vertex="1">
          <mxGeometry y="26" width="190" height="54" as="geometry" />
        </mxCell>
        <mxCell id="52OOBoe9xyoSRza9bdXO-9" value="" style="line;strokeWidth=1;fillColor=none;align=left;verticalAlign=middle;spacingTop=-1;spacingLeft=3;spacingRight=3;rotatable=0;labelPosition=right;points=[];portConstraint=eastwest;strokeColor=inherit;" parent="52OOBoe9xyoSRza9bdXO-7" vertex="1">
          <mxGeometry y="80" width="190" height="8" as="geometry" />
        </mxCell>
        <mxCell id="52OOBoe9xyoSRza9bdXO-10" value="+ Size(String): Void&lt;br&gt;+ UpdateSize(PK, String): Void&lt;br&gt;+ GetSize(PK): Size&lt;br&gt;+ DeleteSize(PK): Void" style="text;strokeColor=none;fillColor=none;align=left;verticalAlign=top;spacingLeft=4;spacingRight=4;overflow=hidden;rotatable=0;points=[[0,0.5],[1,0.5]];portConstraint=eastwest;whiteSpace=wrap;html=1;" parent="52OOBoe9xyoSRza9bdXO-7" vertex="1">
          <mxGeometry y="88" width="190" height="72" as="geometry" />
        </mxCell>
        <mxCell id="52OOBoe9xyoSRza9bdXO-11" value="Color" style="swimlane;fontStyle=1;align=center;verticalAlign=top;childLayout=stackLayout;horizontal=1;startSize=26;horizontalStack=0;resizeParent=1;resizeParentMax=0;resizeLast=0;collapsible=1;marginBottom=0;whiteSpace=wrap;html=1;" parent="1" vertex="1">
          <mxGeometry x="10" y="10" width="280" height="290" as="geometry" />
        </mxCell>
        <mxCell id="52OOBoe9xyoSRza9bdXO-12" value="+ id: Primary Key&lt;br&gt;- color: String&lt;br&gt;- hex: String&lt;br&gt;- rgb-r: Integer&lt;br&gt;- rgb-g: Integer&lt;br&gt;- rgb-b: Integer&lt;br&gt;- active: Boolean&amp;nbsp;" style="text;strokeColor=none;fillColor=none;align=left;verticalAlign=top;spacingLeft=4;spacingRight=4;overflow=hidden;rotatable=0;points=[[0,0.5],[1,0.5]];portConstraint=eastwest;whiteSpace=wrap;html=1;" parent="52OOBoe9xyoSRza9bdXO-11" vertex="1">
          <mxGeometry y="26" width="280" height="114" as="geometry" />
        </mxCell>
        <mxCell id="52OOBoe9xyoSRza9bdXO-13" value="" style="line;strokeWidth=1;fillColor=none;align=left;verticalAlign=middle;spacingTop=-1;spacingLeft=3;spacingRight=3;rotatable=0;labelPosition=right;points=[];portConstraint=eastwest;strokeColor=inherit;" parent="52OOBoe9xyoSRza9bdXO-11" vertex="1">
          <mxGeometry y="140" width="280" height="8" as="geometry" />
        </mxCell>
        <mxCell id="52OOBoe9xyoSRza9bdXO-14" value="+ Color(String): Void&lt;br&gt;+ Color(String, String): Void&lt;br&gt;+ Color(String, Int, Int, Int): Void&lt;br&gt;+ Color (String, String, Int, Int, Int): Void&lt;br&gt;+ UpdateColor(PK,String, String): Void&lt;br style=&quot;border-color: var(--border-color);&quot;&gt;+ UpdateColor(PK,String, Int, Int, Int): Void&lt;br style=&quot;border-color: var(--border-color);&quot;&gt;+ UpdateColor (PK,String, String, Int, Int, Int): Void&lt;br style=&quot;border-color: var(--border-color);&quot;&gt;+ GetColor(PK): Color&lt;br&gt;+ DeleteColor(PK): Void" style="text;strokeColor=none;fillColor=none;align=left;verticalAlign=top;spacingLeft=4;spacingRight=4;overflow=hidden;rotatable=0;points=[[0,0.5],[1,0.5]];portConstraint=eastwest;whiteSpace=wrap;html=1;" parent="52OOBoe9xyoSRza9bdXO-11" vertex="1">
          <mxGeometry y="148" width="280" height="142" as="geometry" />
        </mxCell>
        <mxCell id="52OOBoe9xyoSRza9bdXO-15" value="Product" style="swimlane;fontStyle=1;align=center;verticalAlign=top;childLayout=stackLayout;horizontal=1;startSize=26;horizontalStack=0;resizeParent=1;resizeParentMax=0;resizeLast=0;collapsible=1;marginBottom=0;whiteSpace=wrap;html=1;" parent="1" vertex="1">
          <mxGeometry x="280" y="370" width="360" height="280" as="geometry" />
        </mxCell>
        <mxCell id="52OOBoe9xyoSRza9bdXO-16" value="+ id: Primary Key&lt;br style=&quot;border-color: var(--border-color);&quot;&gt;- code: Integer&lt;br style=&quot;border-color: var(--border-color);&quot;&gt;- supplier_id: Foreing Key[Supplier]&lt;br style=&quot;border-color: var(--border-color);&quot;&gt;- article: String&lt;br style=&quot;border-color: var(--border-color);&quot;&gt;- size_id: Foreing Key [Size]&lt;br style=&quot;border-color: var(--border-color);&quot;&gt;- color_id: Foreing Key [Color]&lt;br style=&quot;border-color: var(--border-color);&quot;&gt;- quantity: Double&lt;br&gt;- cost: double&lt;br style=&quot;border-color: var(--border-color);&quot;&gt;- uss_cost: Double" style="text;strokeColor=none;fillColor=none;align=left;verticalAlign=top;spacingLeft=4;spacingRight=4;overflow=hidden;rotatable=0;points=[[0,0.5],[1,0.5]];portConstraint=eastwest;whiteSpace=wrap;html=1;" parent="52OOBoe9xyoSRza9bdXO-15" vertex="1">
          <mxGeometry y="26" width="360" height="144" as="geometry" />
        </mxCell>
        <mxCell id="52OOBoe9xyoSRza9bdXO-17" value="" style="line;strokeWidth=1;fillColor=none;align=left;verticalAlign=middle;spacingTop=-1;spacingLeft=3;spacingRight=3;rotatable=0;labelPosition=right;points=[];portConstraint=eastwest;strokeColor=inherit;" parent="52OOBoe9xyoSRza9bdXO-15" vertex="1">
          <mxGeometry y="170" width="360" height="8" as="geometry" />
        </mxCell>
        <mxCell id="52OOBoe9xyoSRza9bdXO-18" value="+ Product(String, FK, FK, Double): Void&lt;br&gt;+ Product(Int, FK, String, FK, FK, Double, Double): Void&lt;br&gt;+ GetProduct(PK): Product&lt;br&gt;+ UpdateProd(PK, Int, FK, String, FK, FK, Double, Double): Void&lt;br&gt;+ DeleteProd(PK): Void&lt;br&gt;- CalcUSSCost(PK): Void" style="text;strokeColor=none;fillColor=none;align=left;verticalAlign=top;spacingLeft=4;spacingRight=4;overflow=hidden;rotatable=0;points=[[0,0.5],[1,0.5]];portConstraint=eastwest;whiteSpace=wrap;html=1;" parent="52OOBoe9xyoSRza9bdXO-15" vertex="1">
          <mxGeometry y="178" width="360" height="102" as="geometry" />
        </mxCell>
        <mxCell id="52OOBoe9xyoSRza9bdXO-19" value="Adquisition" style="swimlane;fontStyle=1;align=center;verticalAlign=top;childLayout=stackLayout;horizontal=1;startSize=26;horizontalStack=0;resizeParent=1;resizeParentMax=0;resizeLast=0;collapsible=1;marginBottom=0;whiteSpace=wrap;html=1;" parent="1" vertex="1">
          <mxGeometry x="750" y="610" width="320" height="200" as="geometry">
            <mxRectangle x="230" y="10" width="110" height="30" as="alternateBounds" />
          </mxGeometry>
        </mxCell>
        <mxCell id="52OOBoe9xyoSRza9bdXO-20" value="+ id: Primary Key&lt;br style=&quot;border-color: var(--border-color);&quot;&gt;- product_id: Foreing Key [Product]&lt;br style=&quot;border-color: var(--border-color);&quot;&gt;- buy_date: DateTime&lt;br style=&quot;border-color: var(--border-color);&quot;&gt;- uss_price: Double" style="text;strokeColor=none;fillColor=none;align=left;verticalAlign=top;spacingLeft=4;spacingRight=4;overflow=hidden;rotatable=0;points=[[0,0.5],[1,0.5]];portConstraint=eastwest;whiteSpace=wrap;html=1;" parent="52OOBoe9xyoSRza9bdXO-19" vertex="1">
          <mxGeometry y="26" width="320" height="74" as="geometry" />
        </mxCell>
        <mxCell id="52OOBoe9xyoSRza9bdXO-21" value="" style="line;strokeWidth=1;fillColor=none;align=left;verticalAlign=middle;spacingTop=-1;spacingLeft=3;spacingRight=3;rotatable=0;labelPosition=right;points=[];portConstraint=eastwest;strokeColor=inherit;" parent="52OOBoe9xyoSRza9bdXO-19" vertex="1">
          <mxGeometry y="100" width="320" height="8" as="geometry" />
        </mxCell>
        <mxCell id="52OOBoe9xyoSRza9bdXO-22" value="+ Adquisition(FK, DateTime, Double): Void&lt;br&gt;+ SetAdquisition(PK, FK, DateTime, Double): Void&lt;br&gt;+ SetUSSPrice(PK, Double): Void&lt;br&gt;+ GetAdquisitionById(PK): Adquisition&lt;br&gt;+ GetAdquisitionByProduct(PK): Adquisition" style="text;strokeColor=none;fillColor=none;align=left;verticalAlign=top;spacingLeft=4;spacingRight=4;overflow=hidden;rotatable=0;points=[[0,0.5],[1,0.5]];portConstraint=eastwest;whiteSpace=wrap;html=1;" parent="52OOBoe9xyoSRza9bdXO-19" vertex="1">
          <mxGeometry y="108" width="320" height="92" as="geometry" />
        </mxCell>
        <mxCell id="52OOBoe9xyoSRza9bdXO-23" value="Price" style="swimlane;fontStyle=1;align=center;verticalAlign=top;childLayout=stackLayout;horizontal=1;startSize=26;horizontalStack=0;resizeParent=1;resizeParentMax=0;resizeLast=0;collapsible=1;marginBottom=0;whiteSpace=wrap;html=1;" parent="1" vertex="1">
          <mxGeometry x="10" y="620" width="160" height="150" as="geometry" />
        </mxCell>
        <mxCell id="52OOBoe9xyoSRza9bdXO-24" value="+ id: Primary Key&lt;br&gt;- product_id: Foreing Key&lt;br&gt;- price: Double (calculated)" style="text;strokeColor=none;fillColor=none;align=left;verticalAlign=top;spacingLeft=4;spacingRight=4;overflow=hidden;rotatable=0;points=[[0,0.5],[1,0.5]];portConstraint=eastwest;whiteSpace=wrap;html=1;" parent="52OOBoe9xyoSRza9bdXO-23" vertex="1">
          <mxGeometry y="26" width="160" height="54" as="geometry" />
        </mxCell>
        <mxCell id="52OOBoe9xyoSRza9bdXO-25" value="" style="line;strokeWidth=1;fillColor=none;align=left;verticalAlign=middle;spacingTop=-1;spacingLeft=3;spacingRight=3;rotatable=0;labelPosition=right;points=[];portConstraint=eastwest;strokeColor=inherit;" parent="52OOBoe9xyoSRza9bdXO-23" vertex="1">
          <mxGeometry y="80" width="160" height="8" as="geometry" />
        </mxCell>
        <mxCell id="52OOBoe9xyoSRza9bdXO-26" value="+ Price(FK): Void&lt;br&gt;- CalcPrice(PK): Void&lt;br&gt;+ GetPrice(PK): Price" style="text;strokeColor=none;fillColor=none;align=left;verticalAlign=top;spacingLeft=4;spacingRight=4;overflow=hidden;rotatable=0;points=[[0,0.5],[1,0.5]];portConstraint=eastwest;whiteSpace=wrap;html=1;" parent="52OOBoe9xyoSRza9bdXO-23" vertex="1">
          <mxGeometry y="88" width="160" height="62" as="geometry" />
        </mxCell>
        <mxCell id="52OOBoe9xyoSRza9bdXO-41" value="Supplier" style="swimlane;fontStyle=1;align=center;verticalAlign=top;childLayout=stackLayout;horizontal=1;startSize=26;horizontalStack=0;resizeParent=1;resizeParentMax=0;resizeLast=0;collapsible=1;marginBottom=0;whiteSpace=wrap;html=1;" parent="1" vertex="1">
          <mxGeometry x="306" y="10" width="410" height="290" as="geometry" />
        </mxCell>
        <mxCell id="52OOBoe9xyoSRza9bdXO-42" value="+ id: Primary Key&lt;br&gt;- name: String&lt;br&gt;- address_id: Foreing Key[Address]&lt;br&gt;- phone_id: Foreing Key[Phone]&lt;br&gt;- mobile: Foreing Key[Phone]&lt;br&gt;- web_page: String&lt;br&gt;- instagram: String&lt;br&gt;- facebook: String&lt;br&gt;- other_soc_net_urls: String&lt;br&gt;- active: Boolean" style="text;strokeColor=none;fillColor=none;align=left;verticalAlign=top;spacingLeft=4;spacingRight=4;overflow=hidden;rotatable=0;points=[[0,0.5],[1,0.5]];portConstraint=eastwest;whiteSpace=wrap;html=1;" parent="52OOBoe9xyoSRza9bdXO-41" vertex="1">
          <mxGeometry y="26" width="410" height="154" as="geometry" />
        </mxCell>
        <mxCell id="52OOBoe9xyoSRza9bdXO-43" value="" style="line;strokeWidth=1;fillColor=none;align=left;verticalAlign=middle;spacingTop=-1;spacingLeft=3;spacingRight=3;rotatable=0;labelPosition=right;points=[];portConstraint=eastwest;strokeColor=inherit;" parent="52OOBoe9xyoSRza9bdXO-41" vertex="1">
          <mxGeometry y="180" width="410" height="8" as="geometry" />
        </mxCell>
        <mxCell id="52OOBoe9xyoSRza9bdXO-44" value="+ Supplier(name): Void&lt;br&gt;+ Supplier(name, FK, FK, FK, String, String, String, String): Void&lt;br&gt;+ UpdateSupplier(PK, name): Void&lt;br&gt;+ UpdateSupplier(PK,name,FK,FK,FK,String,String,String,String): Void&lt;br&gt;+ GetSupplier(PK): Supplier&lt;br&gt;+ DeleteSupplier(PK): Void" style="text;strokeColor=none;fillColor=none;align=left;verticalAlign=top;spacingLeft=4;spacingRight=4;overflow=hidden;rotatable=0;points=[[0,0.5],[1,0.5]];portConstraint=eastwest;whiteSpace=wrap;html=1;" parent="52OOBoe9xyoSRza9bdXO-41" vertex="1">
          <mxGeometry y="188" width="410" height="102" as="geometry" />
        </mxCell>
        <mxCell id="52OOBoe9xyoSRza9bdXO-45" value="Address" style="swimlane;fontStyle=1;align=center;verticalAlign=top;childLayout=stackLayout;horizontal=1;startSize=26;horizontalStack=0;resizeParent=1;resizeParentMax=0;resizeLast=0;collapsible=1;marginBottom=0;whiteSpace=wrap;html=1;" parent="1" vertex="1">
          <mxGeometry x="800" y="10" width="360" height="270" as="geometry" />
        </mxCell>
        <mxCell id="52OOBoe9xyoSRza9bdXO-46" value="+ id: Primary Key&lt;br&gt;- country: String&lt;br&gt;- state: String&lt;br&gt;- city: String&lt;br&gt;- street: String&lt;br&gt;- street_nbr: Integer&lt;br&gt;- postal_code: String&lt;br&gt;- active: Boolean" style="text;strokeColor=none;fillColor=none;align=left;verticalAlign=top;spacingLeft=4;spacingRight=4;overflow=hidden;rotatable=0;points=[[0,0.5],[1,0.5]];portConstraint=eastwest;whiteSpace=wrap;html=1;" parent="52OOBoe9xyoSRza9bdXO-45" vertex="1">
          <mxGeometry y="26" width="360" height="134" as="geometry" />
        </mxCell>
        <mxCell id="52OOBoe9xyoSRza9bdXO-47" value="" style="line;strokeWidth=1;fillColor=none;align=left;verticalAlign=middle;spacingTop=-1;spacingLeft=3;spacingRight=3;rotatable=0;labelPosition=right;points=[];portConstraint=eastwest;strokeColor=inherit;" parent="52OOBoe9xyoSRza9bdXO-45" vertex="1">
          <mxGeometry y="160" width="360" height="8" as="geometry" />
        </mxCell>
        <mxCell id="52OOBoe9xyoSRza9bdXO-48" value="+ Address(String, String, String, String, Integer, String): Void&lt;br&gt;+ Address(String, Integer, String): Void&lt;br&gt;+ GetAddress(PK): Address&lt;br&gt;+ UpdateAddress(PK,String,String,String,String,Int, String): Void&lt;br&gt;+ UpdateAddress(PK,String,Integer, String): Void&lt;br&gt;+ DeleteAddress(PK): Void" style="text;strokeColor=none;fillColor=none;align=left;verticalAlign=top;spacingLeft=4;spacingRight=4;overflow=hidden;rotatable=0;points=[[0,0.5],[1,0.5]];portConstraint=eastwest;whiteSpace=wrap;html=1;" parent="52OOBoe9xyoSRza9bdXO-45" vertex="1">
          <mxGeometry y="168" width="360" height="102" as="geometry" />
        </mxCell>
        <mxCell id="52OOBoe9xyoSRza9bdXO-49" value="Phone" style="swimlane;fontStyle=1;align=center;verticalAlign=top;childLayout=stackLayout;horizontal=1;startSize=26;horizontalStack=0;resizeParent=1;resizeParentMax=0;resizeLast=0;collapsible=1;marginBottom=0;whiteSpace=wrap;html=1;" parent="1" vertex="1">
          <mxGeometry x="800" y="320" width="270" height="260" as="geometry" />
        </mxCell>
        <mxCell id="52OOBoe9xyoSRza9bdXO-50" value="+ id: Primary Key&lt;br&gt;- country_code: Int&lt;br&gt;- state_code: Int&lt;br&gt;- city_code: Int&lt;br&gt;- number: Int&lt;br&gt;- is_mobile: Boolean&lt;br&gt;- whatsapp: Boolean&lt;br&gt;- active: Boolean" style="text;strokeColor=none;fillColor=none;align=left;verticalAlign=top;spacingLeft=4;spacingRight=4;overflow=hidden;rotatable=0;points=[[0,0.5],[1,0.5]];portConstraint=eastwest;whiteSpace=wrap;html=1;" parent="52OOBoe9xyoSRza9bdXO-49" vertex="1">
          <mxGeometry y="26" width="270" height="124" as="geometry" />
        </mxCell>
        <mxCell id="52OOBoe9xyoSRza9bdXO-51" value="" style="line;strokeWidth=1;fillColor=none;align=left;verticalAlign=middle;spacingTop=-1;spacingLeft=3;spacingRight=3;rotatable=0;labelPosition=right;points=[];portConstraint=eastwest;strokeColor=inherit;" parent="52OOBoe9xyoSRza9bdXO-49" vertex="1">
          <mxGeometry y="150" width="270" height="8" as="geometry" />
        </mxCell>
        <mxCell id="52OOBoe9xyoSRza9bdXO-52" value="+ Phone(Int, Int, Int, Int, Bool, Bool): Void&lt;br&gt;+ Phone(Int): Void&lt;br&gt;+ GetPhone(PK): Phone&lt;br&gt;+ UpdatePhone(Int, Int, Int, Int, Bool, Bool): Void&lt;br&gt;+ UpdatePhone(Int): Void&lt;br&gt;+ DeletePhone(PK): Void" style="text;strokeColor=none;fillColor=none;align=left;verticalAlign=top;spacingLeft=4;spacingRight=4;overflow=hidden;rotatable=0;points=[[0,0.5],[1,0.5]];portConstraint=eastwest;whiteSpace=wrap;html=1;" parent="52OOBoe9xyoSRza9bdXO-49" vertex="1">
          <mxGeometry y="158" width="270" height="102" as="geometry" />
        </mxCell>
        <mxCell id="HJnT7C2ZA_sAR2RzBEu0-11" value="" style="endArrow=none;html=1;rounded=0;" edge="1" parent="1" source="52OOBoe9xyoSRza9bdXO-7" target="52OOBoe9xyoSRza9bdXO-15">
          <mxGeometry relative="1" as="geometry">
            <mxPoint x="460" y="280" as="sourcePoint" />
            <mxPoint x="620" y="280" as="targetPoint" />
          </mxGeometry>
        </mxCell>
        <mxCell id="HJnT7C2ZA_sAR2RzBEu0-13" value="" style="endArrow=none;html=1;rounded=0;" edge="1" parent="1" source="52OOBoe9xyoSRza9bdXO-15" target="52OOBoe9xyoSRza9bdXO-11">
          <mxGeometry relative="1" as="geometry">
            <mxPoint x="460" y="280" as="sourcePoint" />
            <mxPoint x="620" y="280" as="targetPoint" />
          </mxGeometry>
        </mxCell>
        <mxCell id="HJnT7C2ZA_sAR2RzBEu0-14" value="" style="endArrow=none;html=1;rounded=0;" edge="1" parent="1" source="52OOBoe9xyoSRza9bdXO-41" target="52OOBoe9xyoSRza9bdXO-15">
          <mxGeometry relative="1" as="geometry">
            <mxPoint x="460" y="280" as="sourcePoint" />
            <mxPoint x="620" y="280" as="targetPoint" />
          </mxGeometry>
        </mxCell>
        <mxCell id="HJnT7C2ZA_sAR2RzBEu0-15" value="" style="endArrow=none;html=1;rounded=0;" edge="1" parent="1" source="52OOBoe9xyoSRza9bdXO-15" target="52OOBoe9xyoSRza9bdXO-23">
          <mxGeometry relative="1" as="geometry">
            <mxPoint x="460" y="480" as="sourcePoint" />
            <mxPoint x="620" y="480" as="targetPoint" />
          </mxGeometry>
        </mxCell>
        <mxCell id="HJnT7C2ZA_sAR2RzBEu0-16" value="" style="endArrow=none;html=1;rounded=0;" edge="1" parent="1" source="52OOBoe9xyoSRza9bdXO-41" target="52OOBoe9xyoSRza9bdXO-45">
          <mxGeometry relative="1" as="geometry">
            <mxPoint x="460" y="330" as="sourcePoint" />
            <mxPoint x="620" y="330" as="targetPoint" />
          </mxGeometry>
        </mxCell>
        <mxCell id="HJnT7C2ZA_sAR2RzBEu0-17" value="" style="endArrow=none;html=1;rounded=0;" edge="1" parent="1" source="52OOBoe9xyoSRza9bdXO-41" target="52OOBoe9xyoSRza9bdXO-49">
          <mxGeometry relative="1" as="geometry">
            <mxPoint x="460" y="330" as="sourcePoint" />
            <mxPoint x="620" y="330" as="targetPoint" />
          </mxGeometry>
        </mxCell>
        <mxCell id="HJnT7C2ZA_sAR2RzBEu0-18" value="" style="endArrow=none;html=1;rounded=0;" edge="1" parent="1" source="52OOBoe9xyoSRza9bdXO-15" target="52OOBoe9xyoSRza9bdXO-19">
          <mxGeometry relative="1" as="geometry">
            <mxPoint x="460" y="530" as="sourcePoint" />
            <mxPoint x="620" y="530" as="targetPoint" />
          </mxGeometry>
        </mxCell>
      </root>
    </mxGraphModel>
  </diagram>
</mxfile>
